HIERARCHY
ROOT Hips
{
	OFFSET 0.000000 0.000000 0.000000
	CHANNELS 6 Xposition Yposition Zposition Zrotation Yrotation Xrotation 
	JOINT LHipJoint
	{
		OFFSET 0.000000 0.000000 0.000000
		CHANNELS 3 Zrotation Yrotation Xrotation
		JOINT LeftUpLeg
		{
			OFFSET 1.363060 -1.794630 0.839290
			CHANNELS 3 Zrotation Yrotation Xrotation
			JOINT LeftLeg
			{
				OFFSET 2.448110 -6.726130 0.000000
				CHANNELS 3 Zrotation Yrotation Xrotation
				JOINT LeftFoot
				{
					OFFSET 2.562200 -7.039590 0.000000
					CHANNELS 3 Zrotation Yrotation Xrotation
					JOINT LeftToeBase
					{
						OFFSET 0.157640 -0.433110 2.322550
						CHANNELS 3 Zrotation Yrotation Xrotation
						End Site
						{
							OFFSET 0.000000 0.000000 0.000000
						}
					}
				}
			}
		}
	}
	JOINT RHipJoint
	{
		OFFSET 0.000000 0.000000 0.000000
		CHANNELS 3 Zrotation Yrotation Xrotation
		JOINT RightUpLeg
		{
			OFFSET -1.305520 -1.794630 0.839290
			CHANNELS 3 Zrotation Yrotation Xrotation
			JOINT RightLeg
			{
				OFFSET -2.542530 -6.985550 0.000000
				CHANNELS 3 Zrotation Yrotation Xrotation
				JOINT RightFoot
				{
					OFFSET -2.568260 -7.056230 0.000000
					CHANNELS 3 Zrotation Yrotation Xrotation
					JOINT RightToeBase
					{
						OFFSET -0.164730 -0.452590 2.363150
						CHANNELS 3 Zrotation Yrotation Xrotation
						End Site
						{
							OFFSET 0.000000 0.000000 0.000000
						}
					}
				}
			}
		}
	}
	JOINT LowerBack
	{
		OFFSET 0.000000 0.000000 0.000000
		CHANNELS 3 Zrotation Yrotation Xrotation
		JOINT Spine
		{
			OFFSET 0.028270 2.035590 -0.193380
			CHANNELS 3 Zrotation Yrotation Xrotation
			JOINT Spine1
			{
				OFFSET 0.056720 2.048850 -0.042750
				CHANNELS 3 Zrotation Yrotation Xrotation
				JOINT Neck
				{
					OFFSET 0.000000 0.000000 0.000000
					CHANNELS 3 Zrotation Yrotation Xrotation
					JOINT Neck1
					{
						OFFSET -0.054170 1.746240 0.172020
						CHANNELS 3 Zrotation Yrotation Xrotation
						JOINT Head
						{
							OFFSET 0.104070 1.761360 -0.123970
							CHANNELS 3 Zrotation Yrotation Xrotation
							End Site
							{
								OFFSET 0.000000 0.000000 0.000000
							}
						}
					}
				}
				JOINT LeftShoulder
				{
					OFFSET 0.000000 0.000000 0.000000
					CHANNELS 3 Zrotation Yrotation Xrotation
					JOINT LeftArm
					{
						OFFSET 3.362410 1.200890 -0.311210
						CHANNELS 3 Zrotation Yrotation Xrotation
						JOINT LeftForeArm
						{
							OFFSET 4.983000 -0.000000 -0.000000
							CHANNELS 3 Zrotation Yrotation Xrotation
							JOINT LeftHand
							{
								OFFSET 3.483560 -0.000000 -0.000000
								CHANNELS 3 Zrotation Yrotation Xrotation
								JOINT LeftFingerBase
								{
									OFFSET 0.000000 0.000000 0.000000
									CHANNELS 3 Zrotation Yrotation Xrotation
									JOINT LeftHandIndex1
									{
										OFFSET 0.715260 -0.000000 -0.000000
										CHANNELS 3 Zrotation Yrotation Xrotation
										End Site
										{
											OFFSET 0.000000 0.000000 0.000000
										}
									}
								}
								JOINT LThumb
								{
									OFFSET 0.000000 0.000000 0.000000
									CHANNELS 3 Zrotation Yrotation Xrotation
									End Site
									{
										OFFSET 0.000000 0.000000 0.000000
									}
								}
							}
						}
					}
				}
				JOINT RightShoulder
				{
					OFFSET 0.000000 0.000000 0.000000
					CHANNELS 3 Zrotation Yrotation Xrotation
					JOINT RightArm
					{
						OFFSET -3.136600 1.374050 -0.404650
						CHANNELS 3 Zrotation Yrotation Xrotation
						JOINT RightForeArm
						{
							OFFSET -5.241900 -0.000000 -0.000000
							CHANNELS 3 Zrotation Yrotation Xrotation
							JOINT RightHand
							{
								OFFSET -3.444170 -0.000000 -0.000000
								CHANNELS 3 Zrotation Yrotation Xrotation
								JOINT RightFingerBase
								{
									OFFSET 0.000000 0.000000 0.000000
									CHANNELS 3 Zrotation Yrotation Xrotation
									JOINT RightHandIndex1
									{
										OFFSET -0.622530 -0.000000 -0.000000
										CHANNELS 3 Zrotation Yrotation Xrotation
										End Site
										{
											OFFSET 0.000000 0.000000 0.000000
										}
									}
								}
								JOINT RThumb
								{
									OFFSET 0.000000 0.000000 0.000000
									CHANNELS 3 Zrotation Yrotation Xrotation
									End Site
									{
										OFFSET 0.000000 0.000000 0.000000
									}
								}
							}
						}
					}
				}
			}
		}
	}
}
MOTION
Frames: 7
Frame Time: 0.008333
10.120452 18.012828 25.535851 -177.731443 4.185962 -176.007375 0.821643 4.064785 1.884585 -18.211339 -24.404275 -0.098333 -3.157129 6.749195 19.732424 -6.169320 20.473309 -12.793162 3.229600 -11.057700 -32.474800 -4.738631 -4.008763 0.815979 27.580213 23.042164 4.773293 3.340361 -4.648386 16.255020 6.272241 -25.590400 -16.243866 -0.039700 1.286800 -3.538200 2.806452 -0.258722 5.521267 3.699314 0.010930 3.356014 -4.039004 -0.222146 -13.201249 -7.914080 -2.994960 -23.011409 14.806220 -3.620537 19.643683 2.752000 -0.358300 7.273400 -0.930829 -9.412032 2.487996 -74.443122 17.519868 0.328622 22.416180 -21.200407 -4.232009 1.875412 -0.299520 22.954378 -4.697428 -25.386217 2.850900 -7.125000 0.000000 0.000000 -21.598400 5.491000 21.021400 -0.526861 10.379785 3.512161 71.585255 -19.413620 21.483848 -20.314755 21.846057 -5.333940 1.008335 -0.969223 23.973552 9.712809 -54.250321 -6.787400 7.125000 0.000000 0.000000 79.928000 -68.779800 -56.790500 
10.121729 18.015382 25.540728 -177.746636 4.315065 -175.915191 0.808807 4.044924 1.882589 -18.161783 -24.334443 -0.231677 -3.157887 6.752133 19.734823 -6.132737 20.370356 -12.811966 3.145800 -10.927400 -32.035600 -4.733135 -3.994798 0.820362 27.501691 23.124391 4.662109 3.345753 -4.643242 16.229301 6.193334 -25.355673 -16.309641 -0.020200 0.917500 -2.521700 2.782556 -0.226462 5.505039 3.627592 0.044517 3.423305 -4.016288 -0.198550 -13.173580 -7.803835 -2.929656 -22.829110 14.717067 -3.559802 19.356603 2.701100 -0.358000 7.157500 -0.878492 -9.413979 2.510407 -73.874346 17.875929 0.361538 22.599565 -21.380125 -4.289269 1.876979 -0.265779 22.342838 -4.334441 -25.500164 2.701200 -7.125000 0.000000 0.000000 -21.382300 5.359400 20.833100 -0.549519 10.358700 3.508476 71.105717 -19.607150 21.574271 -20.322003 21.837869 -5.344837 1.013429 -0.979611 24.051635 10.605030 -54.267687 -7.511900 7.125000 0.000000 0.000000 80.488500 -68.496400 -56.977200 
10.121845 18.015615 25.544327 -177.676514 4.417601 -175.865167 0.813399 4.037174 1.889575 -18.061381 -24.276003 -0.334977 -3.153564 6.756934 19.744896 -6.149515 20.394879 -12.772895 3.121200 -10.888700 -31.905600 -4.723579 -3.986181 0.832256 27.515989 23.115697 4.573006 3.348891 -4.637666 16.203740 6.132461 -25.165151 -16.268264 -0.017300 0.849100 -2.333800 2.816882 -0.212571 5.499565 3.702104 0.060118 3.587485 -4.045625 -0.191071 -13.158789 -7.819167 -2.904103 -22.718265 14.630510 -3.523587 19.050078 2.664500 -0.378400 7.050800 -0.834763 -9.421584 2.525604 -73.344392 18.194840 0.400364 22.705678 -21.477159 -4.323800 1.882173 -0.250088 21.828067 -4.260985 -25.639096 2.683500 -7.125000 0.000000 0.000000 -21.334000 5.226900 20.835700 -0.590187 10.332562 3.501496 70.552034 -19.724944 21.783544 -20.305504 21.805390 -5.354942 1.015783 -0.990773 23.998449 11.509020 -54.456767 -8.267800 7.125000 0.000000 0.000000 81.460500 -68.249500 -57.622000 
10.123239 18.017124 25.549552 -177.595682 4.532878 -175.843791 0.827549 4.028489 1.904855 -17.943751 -24.130892 -0.482688 -3.140651 6.774153 19.791050 -6.161865 20.399942 -12.688737 3.159200 -10.948300 -32.105900 -4.714126 -3.981404 0.847439 27.550422 23.057426 4.503333 3.352367 -4.621964 16.146367 6.131744 -25.121941 -16.049810 -0.026200 1.044900 -2.872400 2.795901 -0.196402 5.521231 3.827626 0.071261 3.820772 -4.049580 -0.179196 -13.164153 -7.784307 -2.860611 -22.546407 14.456761 -3.464574 18.627790 2.594300 -0.403800 6.900600 -0.799746 -9.426792 2.531570 -72.911027 18.402084 -0.222662 22.583679 -21.381579 -4.339729 1.941704 -0.194593 22.461035 -2.947762 -27.073886 2.230400 -7.125000 0.000000 0.000000 -20.529900 3.735700 20.538500 -0.638107 10.304008 3.490137 69.969552 -19.857634 22.204380 -20.347160 21.846119 -5.386937 1.019814 -0.998213 23.722341 12.384021 -54.645203 -9.006300 7.125000 0.000000 0.000000 82.401400 -68.010100 -58.253200 
10.125445 18.019446 25.556403 -177.533837 4.663904 -175.786956 0.834287 4.009169 1.921403 -17.820584 -23.922432 -0.697535 -3.127780 6.799794 19.860672 -6.141035 20.327844 -12.690859 3.210000 -11.027400 -32.372400 -4.707912 -3.970441 0.859384 27.559209 23.094400 4.416662 3.360475 -4.597764 16.052314 6.156566 -25.144842 -15.781061 -0.027200 1.063900 -2.924600 2.761738 -0.169093 5.516352 3.876665 0.091630 4.067218 -4.033449 -0.158969 -13.151417 -7.583161 -2.771203 -22.330158 14.274499 -3.381585 18.114394 2.499300 -0.416900 6.715900 -0.759430 -9.427656 2.539848 -72.448311 18.622647 -1.091234 22.202609 -21.033276 -4.341447 2.041998 -0.095578 24.052958 -0.125414 -29.751667 1.023500 -7.125000 0.000000 0.000000 -18.895300 0.856200 19.720400 -0.681463 10.276971 3.473642 69.432411 -20.046000 22.655193 -20.387070 21.877709 -5.410989 1.026091 -1.006389 23.521288 12.874172 -54.683556 -9.409800 7.125000 0.000000 0.000000 82.757500 -67.862000 -58.418700 
10.125909 18.022001 25.561279 -177.495490 4.797762 -175.760338 0.832499 4.002246 1.948500 -17.749556 -23.786627 -0.844674 -3.117777 6.824043 19.923885 -6.178920 20.428062 -12.739411 3.293300 -11.155400 -32.805600 -4.706802 -3.965288 0.882220 27.536262 23.063355 4.324895 3.365887 -4.570454 15.961257 6.162085 -25.095871 -15.474339 -0.032900 1.171200 -3.220000 2.791545 -0.153454 5.419089 3.835812 0.093165 4.453656 -4.036567 -0.149355 -13.095391 -7.340553 -2.681043 -22.178730 14.134394 -3.306030 17.617494 2.412600 -0.425500 6.550000 -0.707365 -9.440087 2.530792 -71.946986 18.714428 -0.795800 22.588800 -21.403847 -4.363932 1.973451 -0.205120 22.288153 -3.141924 -27.788749 2.392000 -7.125000 0.000000 0.000000 -20.624200 3.079600 20.911600 -0.722166 10.257573 3.451098 68.905551 -20.162649 23.226273 -20.419317 21.899297 -5.434352 1.032089 -1.013475 23.229525 13.173022 -54.774031 -9.662500 7.125000 0.000000 0.000000 83.122400 -67.786400 -58.689100 
10.126374 18.025020 25.566388 -177.436442 4.858975 -175.750141 0.842525 3.998550 1.971820 -17.660085 -23.694917 -0.977232 -3.102269 6.846966 19.984879 -6.204504 20.474740 -12.668668 3.357000 -11.251700 -33.133400 -4.695781 -3.963128 0.911180 27.537929 22.976714 4.240125 3.371760 -4.544930 15.881611 6.162059 -25.050028 -15.239566 -0.043900 1.352100 -3.718300 2.789616 -0.179141 5.325065 3.930336 0.037397 4.856626 -4.032295 -0.166476 -13.044029 -7.301084 -2.630321 -22.217580 14.034796 -3.231480 17.355360 2.375900 -0.420200 6.480200 -0.672024 -9.442590 2.530251 -71.587675 18.819359 -1.963562 21.981119 -20.813194 -4.297894 2.081139 -0.097196 24.625976 0.485727 -30.546768 0.745500 -7.125000 0.000000 0.000000 -18.566500 0.022100 19.619000 -0.773328 10.238133 3.431547 68.293346 -20.188283 23.809140 -20.428164 21.894295 -5.441223 1.040996 -1.022133 23.113255 13.589632 -54.671524 -9.987100 7.125000 0.000000 0.000000 83.109000 -67.632500 -58.472800 
